<svg width="8" height="14" viewBox="0 0 8 14" fill="none" xmlns="http://www.w3.org/2000/svg">
<path d="M3.13089 7.29498C3.09209 7.25628 3.0613 7.2103 3.0403 7.15968C3.01929 7.10906 3.00848 7.05479 3.00848 6.99998C3.00848 6.94518 3.01929 6.89091 3.0403 6.84029C3.0613 6.78967 3.09209 6.74369 3.13089 6.70498L6.95255 2.88415C7.18705 2.64977 7.31883 2.33183 7.31891 2.00028C7.31899 1.66873 7.18735 1.35073 6.95297 1.11623C6.71858 0.881738 6.40065 0.749956 6.0691 0.749878C5.73755 0.7498 5.41955 0.881432 5.18506 1.11582L1.3634 4.93748C0.817371 5.48501 0.510742 6.22672 0.510742 6.99998C0.510742 7.77325 0.817371 8.51495 1.3634 9.06248L5.18506 12.8842C5.41955 13.1185 5.73755 13.2502 6.0691 13.2501C6.40065 13.25 6.71858 13.1182 6.95297 12.8837C7.18735 12.6492 7.31899 12.3312 7.31891 11.9997C7.31883 11.6681 7.18705 11.3502 6.95255 11.1158L3.13089 7.29498Z" fill="black"/>
</svg>
