<svg width="24" height="24" viewBox="0 0 24 24" fill="none" xmlns="http://www.w3.org/2000/svg">
<path d="M3.5 4.5H5.058C5.754 4.5 6.102 4.5 6.364 4.689C6.626 4.878 6.736 5.208 6.956 5.868L7.5 7.5" stroke="black" stroke-linecap="round"/>
<path d="M17.5001 17.5H8.05008C7.90508 17.5 7.83208 17.5 7.77608 17.494C7.63724 17.4785 7.50317 17.4341 7.38254 17.3636C7.26191 17.2932 7.15738 17.1982 7.0757 17.0848C6.99401 16.9715 6.93698 16.8423 6.90829 16.7056C6.87959 16.5688 6.87986 16.4276 6.90908 16.291C6.93217 16.2025 6.95919 16.1151 6.99008 16.029C7.04208 15.875 7.06708 15.798 7.09608 15.729C7.23843 15.388 7.47245 15.0932 7.77217 14.8771C8.0719 14.6611 8.42561 14.5323 8.79408 14.505C8.86808 14.5 8.94908 14.5 9.11108 14.5H14.5001" stroke="black" stroke-linecap="round" stroke-linejoin="round"/>
<path d="M14.1791 14.5H11.1381C9.85809 14.5 9.2181 14.5 8.7181 14.17C8.2171 13.84 7.9651 13.252 7.4611 12.076L7.2921 11.682C6.4821 9.792 6.0781 8.849 6.5221 8.174C6.9681 7.5 7.9961 7.5 10.0501 7.5H15.3301C17.6301 7.5 18.7791 7.5 19.2131 8.247C19.6461 8.994 19.0761 9.992 17.9351 11.988L17.6521 12.485C17.0901 13.468 16.8091 13.96 16.3431 14.23C15.8781 14.5 15.3111 14.5 14.1791 14.5Z" stroke="black" stroke-linecap="round"/>
<path d="M17 21C17.5523 21 18 20.5523 18 20C18 19.4477 17.5523 19 17 19C16.4477 19 16 19.4477 16 20C16 20.5523 16.4477 21 17 21Z" fill="black"/>
<path d="M9 21C9.55228 21 10 20.5523 10 20C10 19.4477 9.55228 19 9 19C8.44772 19 8 19.4477 8 20C8 20.5523 8.44772 21 9 21Z" fill="black"/>
</svg>
