<svg width="19" height="18" viewBox="0 0 19 18" fill="none" xmlns="http://www.w3.org/2000/svg">
<path d="M16.5 0H2.5C1.96957 0 1.46086 0.210714 1.08579 0.585786C0.710714 0.960859 0.5 1.46957 0.5 2V16C0.5 16.5304 0.710714 17.0391 1.08579 17.4142C1.46086 17.7893 1.96957 18 2.5 18H16.5C17.0304 18 17.5391 17.7893 17.9142 17.4142C18.2893 17.0391 18.5 16.5304 18.5 16V2C18.5 1.46957 18.2893 0.960859 17.9142 0.585786C17.5391 0.210714 17.0304 0 16.5 0ZM16.5 2V16H2.5V2H16.5ZM7.5 14L3.5 10L4.91 8.58L7.5 11.17L14.09 4.58L15.5 6" fill="#595959"/>
</svg>
