<svg width="16" height="16" viewBox="0 0 16 16" fill="none" xmlns="http://www.w3.org/2000/svg">
<path d="M13.7988 10.133L10.8475 8.81236C10.7331 8.76284 10.6082 8.74263 10.484 8.75354C10.3598 8.76445 10.2403 8.80615 10.1363 8.87486C10.1279 8.88014 10.12 8.88598 10.1125 8.89236L8.56251 10.2136C8.52801 10.2346 8.48886 10.2469 8.44853 10.2491C8.40819 10.2514 8.36791 10.2437 8.33126 10.2267C7.31626 9.73673 6.26563 8.69423 5.77563 7.69111C5.7583 7.65473 5.75025 7.61463 5.75222 7.57438C5.75418 7.53413 5.76609 7.495 5.78688 7.46048L7.11188 5.88486C7.11813 5.87736 7.12376 5.86923 7.12938 5.86111C7.19788 5.75723 7.23945 5.63795 7.25036 5.51401C7.26127 5.39006 7.24118 5.26535 7.19188 5.15111L5.86876 2.20486C5.80488 2.05564 5.69432 1.93117 5.55367 1.85014C5.41303 1.76911 5.24989 1.73589 5.08876 1.75548C4.30224 1.85918 3.58036 2.24565 3.05796 2.84269C2.53556 3.43974 2.24836 4.20653 2.25001 4.99986C2.25001 9.82486 6.17501 13.7499 11 13.7499C11.7933 13.7515 12.5601 13.4643 13.1572 12.9419C13.7542 12.4195 14.1407 11.6976 14.2444 10.9111C14.2638 10.7507 14.231 10.5883 14.1507 10.4481C14.0704 10.3079 13.9469 10.1974 13.7988 10.133ZM13.75 10.8486C13.6617 11.5147 13.3339 12.1258 12.8278 12.5678C12.3217 13.0097 11.6719 13.2522 11 13.2499C6.45126 13.2499 2.75001 9.54861 2.75001 4.99986C2.74768 4.32795 2.99015 3.67819 3.43209 3.17207C3.87402 2.66595 4.48517 2.33812 5.15126 2.24986C5.16125 2.24926 5.17127 2.24926 5.18126 2.24986C5.23058 2.25028 5.27867 2.26528 5.31949 2.29297C5.3603 2.32066 5.39201 2.35981 5.41063 2.40548L6.73001 5.35173C6.7454 5.38774 6.75212 5.42686 6.74962 5.46595C6.74713 5.50503 6.73548 5.54298 6.71563 5.57673L5.39126 7.15173C5.38501 7.15986 5.37876 7.16736 5.37313 7.17611C5.30257 7.28401 5.26102 7.40827 5.25248 7.5369C5.24394 7.66554 5.26871 7.79421 5.32438 7.91048C5.86751 9.02236 6.98751 10.1342 8.11188 10.6774C8.22895 10.7327 8.35835 10.7567 8.48748 10.7472C8.61661 10.7377 8.74107 10.6949 8.84876 10.623L8.87188 10.6055L10.4238 9.28548C10.457 9.2652 10.4945 9.2531 10.5333 9.25016C10.5721 9.24723 10.611 9.25355 10.6469 9.26861L13.5975 10.5911C13.6473 10.6118 13.6891 10.6481 13.7165 10.6945C13.744 10.7409 13.7558 10.795 13.75 10.8486Z" fill="#595959"/>
</svg>
