<svg width="25" height="25" viewBox="0 0 25 25" fill="none" xmlns="http://www.w3.org/2000/svg">
<path d="M19.9551 3.87891H5.95508C5.42465 3.87891 4.91594 4.08962 4.54086 4.46469C4.16579 4.83977 3.95508 5.34847 3.95508 5.87891V19.8789C3.95508 20.4093 4.16579 20.918 4.54086 21.2931C4.91594 21.6682 5.42465 21.8789 5.95508 21.8789H19.9551C20.4855 21.8789 20.9942 21.6682 21.3693 21.2931C21.7444 20.918 21.9551 20.4093 21.9551 19.8789V5.87891C21.9551 5.34847 21.7444 4.83977 21.3693 4.46469C20.9942 4.08962 20.4855 3.87891 19.9551 3.87891ZM19.9551 5.87891V19.8789H5.95508V5.87891H19.9551ZM10.9551 17.8789L6.95508 13.8789L8.36508 12.4589L10.9551 15.0489L17.5451 8.45891L18.9551 9.87891" fill="#55BB00"/>
</svg>
