<svg width="18" height="18" viewBox="0 0 18 18" fill="none" xmlns="http://www.w3.org/2000/svg">
<g clip-path="url(#clip0_631_4422)">
<path d="M16.5 16.5L15 15M8.625 15.75C9.56067 15.75 10.4872 15.5657 11.3516 15.2076C12.2161 14.8496 13.0015 14.3248 13.6631 13.6631C14.3248 13.0015 14.8496 12.2161 15.2076 11.3516C15.5657 10.4872 15.75 9.56067 15.75 8.625C15.75 7.68933 15.5657 6.76282 15.2076 5.89838C14.8496 5.03393 14.3248 4.24848 13.6631 3.58686C13.0015 2.92525 12.2161 2.40042 11.3516 2.04236C10.4872 1.68429 9.56067 1.5 8.625 1.5C6.73533 1.5 4.92306 2.25067 3.58686 3.58686C2.25067 4.92306 1.5 6.73533 1.5 8.625C1.5 10.5147 2.25067 12.3269 3.58686 13.6631C4.92306 14.9993 6.73533 15.75 8.625 15.75Z" stroke="#848484" stroke-width="1.5" stroke-linecap="round" stroke-linejoin="round"/>
</g>
<defs>
<clipPath id="clip0_631_4422">
<rect width="18" height="18" fill="white"/>
</clipPath>
</defs>
</svg>
