<svg width="20" height="20" viewBox="0 0 20 20" fill="none" xmlns="http://www.w3.org/2000/svg">
<path d="M9.13089 10.295C9.09209 10.2563 9.0613 10.2103 9.0403 10.1597C9.01929 10.1091 9.00848 10.0548 9.00848 9.99998C9.00848 9.94518 9.01929 9.89091 9.0403 9.84029C9.0613 9.78967 9.09209 9.74369 9.13089 9.70498L12.9526 5.88415C13.187 5.64977 13.3188 5.33183 13.3189 5.00028C13.319 4.66873 13.1874 4.35073 12.953 4.11623C12.7186 3.88174 12.4006 3.74996 12.0691 3.74988C11.7376 3.7498 11.4196 3.88143 11.1851 4.11582L7.3634 7.93748C6.81737 8.48501 6.51074 9.22672 6.51074 9.99998C6.51074 10.7732 6.81737 11.515 7.3634 12.0625L11.1851 15.8842C11.4196 16.1185 11.7376 16.2502 12.0691 16.2501C12.4006 16.25 12.7186 16.1182 12.953 15.8837C13.1874 15.6492 13.319 15.3312 13.3189 14.9997C13.3188 14.6681 13.187 14.3502 12.9526 14.1158L9.13089 10.295Z" fill="black"/>
</svg>
