<svg width="25" height="24" viewBox="0 0 25 24" fill="none" xmlns="http://www.w3.org/2000/svg">
<path d="M12.5 1.5C10.4233 1.5 8.39323 2.11581 6.66652 3.26957C4.9398 4.42332 3.59399 6.0632 2.79927 7.98182C2.00455 9.90045 1.79661 12.0116 2.20176 14.0484C2.6069 16.0852 3.60693 17.9562 5.07538 19.4246C6.54383 20.8931 8.41476 21.8931 10.4516 22.2982C12.4884 22.7034 14.5996 22.4955 16.5182 21.7007C18.4368 20.906 20.0767 19.5602 21.2304 17.8335C22.3842 16.1068 23 14.0767 23 12C23 9.21523 21.8938 6.54451 19.9246 4.57538C17.9555 2.60625 15.2848 1.5 12.5 1.5ZM12.5 21C10.72 21 8.97992 20.4722 7.49987 19.4832C6.01983 18.4943 4.86628 17.0887 4.18509 15.4442C3.5039 13.7996 3.32567 11.99 3.67294 10.2442C4.0202 8.49836 4.87737 6.89471 6.13604 5.63604C7.39472 4.37737 8.99836 3.5202 10.7442 3.17293C12.49 2.82567 14.2996 3.0039 15.9442 3.68508C17.5887 4.36627 18.9943 5.51983 19.9832 6.99987C20.9722 8.47991 21.5 10.22 21.5 12C21.5 14.3869 20.5518 16.6761 18.864 18.364C17.1761 20.0518 14.887 21 12.5 21Z" fill="black"/>
</svg>
