<svg width="25" height="24" viewBox="0 0 25 24" fill="none" xmlns="http://www.w3.org/2000/svg">
<path d="M12.5 16.5C13.6935 16.5 14.8381 16.0259 15.682 15.182C16.5259 14.3381 17 13.1935 17 12C17 10.8065 16.5259 9.66193 15.682 8.81802C14.8381 7.97411 13.6935 7.5 12.5 7.5C11.3065 7.5 10.1619 7.97411 9.31802 8.81802C8.47411 9.66193 8 10.8065 8 12C8 13.1935 8.47411 14.3381 9.31802 15.182C10.1619 16.0259 11.3065 16.5 12.5 16.5ZM12.5 3C11.3181 3 10.1478 3.23279 9.05585 3.68508C7.96392 4.13738 6.97177 4.80031 6.13604 5.63604C5.30031 6.47177 4.63738 7.46392 4.18508 8.55585C3.73279 9.64778 3.5 10.8181 3.5 12C3.5 13.1819 3.73279 14.3522 4.18508 15.4442C4.63738 16.5361 5.30031 17.5282 6.13604 18.364C6.97177 19.1997 7.96392 19.8626 9.05585 20.3149C10.1478 20.7672 11.3181 21 12.5 21C14.8869 21 17.1761 20.0518 18.864 18.364C20.5518 16.6761 21.5 14.3869 21.5 12C21.5 9.61305 20.5518 7.32387 18.864 5.63604C17.1761 3.94821 14.8869 3 12.5 3ZM5 12C5 10.0109 5.79018 8.10322 7.1967 6.6967C8.60322 5.29018 10.5109 4.5 12.5 4.5C14.4891 4.5 16.3968 5.29018 17.8033 6.6967C19.2098 8.10322 20 10.0109 20 12C20 13.9891 19.2098 15.8968 17.8033 17.3033C16.3968 18.7098 14.4891 19.5 12.5 19.5C10.5109 19.5 8.60322 18.7098 7.1967 17.3033C5.79018 15.8968 5 13.9891 5 12Z" fill="#55BB00"/>
</svg>
