<svg width="285" height="4" viewBox="0 0 285 4" fill="none" xmlns="http://www.w3.org/2000/svg">
<path d="M0.015625 1.99219C0.015625 1.67969 0.122396 1.41667 0.335938 1.20312C0.549479 0.989583 0.838542 0.882812 1.20312 0.882812C1.56771 0.882812 1.85677 0.989583 2.07031 1.20312C2.28385 1.41667 2.39062 1.67969 2.39062 1.99219C2.39062 2.29948 2.28385 2.5599 2.07031 2.77344C1.85677 2.98177 1.56771 3.08594 1.20312 3.08594C0.838542 3.08594 0.549479 2.98177 0.335938 2.77344C0.122396 2.5599 0.015625 2.29948 0.015625 1.99219ZM4.5625 1.99219C4.5625 1.67969 4.66927 1.41667 4.88281 1.20312C5.09635 0.989583 5.38542 0.882812 5.75 0.882812C6.11458 0.882812 6.40365 0.989583 6.61719 1.20312C6.83073 1.41667 6.9375 1.67969 6.9375 1.99219C6.9375 2.29948 6.83073 2.5599 6.61719 2.77344C6.40365 2.98177 6.11458 3.08594 5.75 3.08594C5.38542 3.08594 5.09635 2.98177 4.88281 2.77344C4.66927 2.5599 4.5625 2.29948 4.5625 1.99219ZM9.10938 1.99219C9.10938 1.67969 9.21615 1.41667 9.42969 1.20312C9.64323 0.989583 9.93229 0.882812 10.2969 0.882812C10.6615 0.882812 10.9505 0.989583 11.1641 1.20312C11.3776 1.41667 11.4844 1.67969 11.4844 1.99219C11.4844 2.29948 11.3776 2.5599 11.1641 2.77344C10.9505 2.98177 10.6615 3.08594 10.2969 3.08594C9.93229 3.08594 9.64323 2.98177 9.42969 2.77344C9.21615 2.5599 9.10938 2.29948 9.10938 1.99219ZM13.6562 1.99219C13.6562 1.67969 13.763 1.41667 13.9766 1.20312C14.1901 0.989583 14.4792 0.882812 14.8438 0.882812C15.2083 0.882812 15.4974 0.989583 15.7109 1.20312C15.9245 1.41667 16.0312 1.67969 16.0312 1.99219C16.0312 2.29948 15.9245 2.5599 15.7109 2.77344C15.4974 2.98177 15.2083 3.08594 14.8438 3.08594C14.4792 3.08594 14.1901 2.98177 13.9766 2.77344C13.763 2.5599 13.6562 2.29948 13.6562 1.99219ZM18.2031 1.99219C18.2031 1.67969 18.3099 1.41667 18.5234 1.20312C18.737 0.989583 19.026 0.882812 19.3906 0.882812C19.7552 0.882812 20.0443 0.989583 20.2578 1.20312C20.4714 1.41667 20.5781 1.67969 20.5781 1.99219C20.5781 2.29948 20.4714 2.5599 20.2578 2.77344C20.0443 2.98177 19.7552 3.08594 19.3906 3.08594C19.026 3.08594 18.737 2.98177 18.5234 2.77344C18.3099 2.5599 18.2031 2.29948 18.2031 1.99219ZM22.75 1.99219C22.75 1.67969 22.8568 1.41667 23.0703 1.20312C23.2839 0.989583 23.5729 0.882812 23.9375 0.882812C24.3021 0.882812 24.5911 0.989583 24.8047 1.20312C25.0182 1.41667 25.125 1.67969 25.125 1.99219C25.125 2.29948 25.0182 2.5599 24.8047 2.77344C24.5911 2.98177 24.3021 3.08594 23.9375 3.08594C23.5729 3.08594 23.2839 2.98177 23.0703 2.77344C22.8568 2.5599 22.75 2.29948 22.75 1.99219ZM27.2969 1.99219C27.2969 1.67969 27.4036 1.41667 27.6172 1.20312C27.8307 0.989583 28.1198 0.882812 28.4844 0.882812C28.849 0.882812 29.138 0.989583 29.3516 1.20312C29.5651 1.41667 29.6719 1.67969 29.6719 1.99219C29.6719 2.29948 29.5651 2.5599 29.3516 2.77344C29.138 2.98177 28.849 3.08594 28.4844 3.08594C28.1198 3.08594 27.8307 2.98177 27.6172 2.77344C27.4036 2.5599 27.2969 2.29948 27.2969 1.99219ZM31.8438 1.99219C31.8438 1.67969 31.9505 1.41667 32.1641 1.20312C32.3776 0.989583 32.6667 0.882812 33.0312 0.882812C33.3958 0.882812 33.6849 0.989583 33.8984 1.20312C34.112 1.41667 34.2188 1.67969 34.2188 1.99219C34.2188 2.29948 34.112 2.5599 33.8984 2.77344C33.6849 2.98177 33.3958 3.08594 33.0312 3.08594C32.6667 3.08594 32.3776 2.98177 32.1641 2.77344C31.9505 2.5599 31.8438 2.29948 31.8438 1.99219ZM36.3906 1.99219C36.3906 1.67969 36.4974 1.41667 36.7109 1.20312C36.9245 0.989583 37.2135 0.882812 37.5781 0.882812C37.9427 0.882812 38.2318 0.989583 38.4453 1.20312C38.6589 1.41667 38.7656 1.67969 38.7656 1.99219C38.7656 2.29948 38.6589 2.5599 38.4453 2.77344C38.2318 2.98177 37.9427 3.08594 37.5781 3.08594C37.2135 3.08594 36.9245 2.98177 36.7109 2.77344C36.4974 2.5599 36.3906 2.29948 36.3906 1.99219ZM40.9375 1.99219C40.9375 1.67969 41.0443 1.41667 41.2578 1.20312C41.4714 0.989583 41.7604 0.882812 42.125 0.882812C42.4896 0.882812 42.7786 0.989583 42.9922 1.20312C43.2057 1.41667 43.3125 1.67969 43.3125 1.99219C43.3125 2.29948 43.2057 2.5599 42.9922 2.77344C42.7786 2.98177 42.4896 3.08594 42.125 3.08594C41.7604 3.08594 41.4714 2.98177 41.2578 2.77344C41.0443 2.5599 40.9375 2.29948 40.9375 1.99219ZM45.4844 1.99219C45.4844 1.67969 45.5911 1.41667 45.8047 1.20312C46.0182 0.989583 46.3073 0.882812 46.6719 0.882812C47.0365 0.882812 47.3255 0.989583 47.5391 1.20312C47.7526 1.41667 47.8594 1.67969 47.8594 1.99219C47.8594 2.29948 47.7526 2.5599 47.5391 2.77344C47.3255 2.98177 47.0365 3.08594 46.6719 3.08594C46.3073 3.08594 46.0182 2.98177 45.8047 2.77344C45.5911 2.5599 45.4844 2.29948 45.4844 1.99219ZM50.0312 1.99219C50.0312 1.67969 50.138 1.41667 50.3516 1.20312C50.5651 0.989583 50.8542 0.882812 51.2188 0.882812C51.5833 0.882812 51.8724 0.989583 52.0859 1.20312C52.2995 1.41667 52.4062 1.67969 52.4062 1.99219C52.4062 2.29948 52.2995 2.5599 52.0859 2.77344C51.8724 2.98177 51.5833 3.08594 51.2188 3.08594C50.8542 3.08594 50.5651 2.98177 50.3516 2.77344C50.138 2.5599 50.0312 2.29948 50.0312 1.99219ZM54.5781 1.99219C54.5781 1.67969 54.6849 1.41667 54.8984 1.20312C55.112 0.989583 55.401 0.882812 55.7656 0.882812C56.1302 0.882812 56.4193 0.989583 56.6328 1.20312C56.8464 1.41667 56.9531 1.67969 56.9531 1.99219C56.9531 2.29948 56.8464 2.5599 56.6328 2.77344C56.4193 2.98177 56.1302 3.08594 55.7656 3.08594C55.401 3.08594 55.112 2.98177 54.8984 2.77344C54.6849 2.5599 54.5781 2.29948 54.5781 1.99219ZM59.125 1.99219C59.125 1.67969 59.2318 1.41667 59.4453 1.20312C59.6589 0.989583 59.9479 0.882812 60.3125 0.882812C60.6771 0.882812 60.9661 0.989583 61.1797 1.20312C61.3932 1.41667 61.5 1.67969 61.5 1.99219C61.5 2.29948 61.3932 2.5599 61.1797 2.77344C60.9661 2.98177 60.6771 3.08594 60.3125 3.08594C59.9479 3.08594 59.6589 2.98177 59.4453 2.77344C59.2318 2.5599 59.125 2.29948 59.125 1.99219ZM63.6719 1.99219C63.6719 1.67969 63.7786 1.41667 63.9922 1.20312C64.2057 0.989583 64.4948 0.882812 64.8594 0.882812C65.224 0.882812 65.513 0.989583 65.7266 1.20312C65.9401 1.41667 66.0469 1.67969 66.0469 1.99219C66.0469 2.29948 65.9401 2.5599 65.7266 2.77344C65.513 2.98177 65.224 3.08594 64.8594 3.08594C64.4948 3.08594 64.2057 2.98177 63.9922 2.77344C63.7786 2.5599 63.6719 2.29948 63.6719 1.99219ZM68.2188 1.99219C68.2188 1.67969 68.3255 1.41667 68.5391 1.20312C68.7526 0.989583 69.0417 0.882812 69.4062 0.882812C69.7708 0.882812 70.0599 0.989583 70.2734 1.20312C70.487 1.41667 70.5938 1.67969 70.5938 1.99219C70.5938 2.29948 70.487 2.5599 70.2734 2.77344C70.0599 2.98177 69.7708 3.08594 69.4062 3.08594C69.0417 3.08594 68.7526 2.98177 68.5391 2.77344C68.3255 2.5599 68.2188 2.29948 68.2188 1.99219ZM72.7656 1.99219C72.7656 1.67969 72.8724 1.41667 73.0859 1.20312C73.2995 0.989583 73.5885 0.882812 73.9531 0.882812C74.3177 0.882812 74.6068 0.989583 74.8203 1.20312C75.0339 1.41667 75.1406 1.67969 75.1406 1.99219C75.1406 2.29948 75.0339 2.5599 74.8203 2.77344C74.6068 2.98177 74.3177 3.08594 73.9531 3.08594C73.5885 3.08594 73.2995 2.98177 73.0859 2.77344C72.8724 2.5599 72.7656 2.29948 72.7656 1.99219ZM77.3125 1.99219C77.3125 1.67969 77.4193 1.41667 77.6328 1.20312C77.8464 0.989583 78.1354 0.882812 78.5 0.882812C78.8646 0.882812 79.1536 0.989583 79.3672 1.20312C79.5807 1.41667 79.6875 1.67969 79.6875 1.99219C79.6875 2.29948 79.5807 2.5599 79.3672 2.77344C79.1536 2.98177 78.8646 3.08594 78.5 3.08594C78.1354 3.08594 77.8464 2.98177 77.6328 2.77344C77.4193 2.5599 77.3125 2.29948 77.3125 1.99219ZM81.8594 1.99219C81.8594 1.67969 81.9661 1.41667 82.1797 1.20312C82.3932 0.989583 82.6823 0.882812 83.0469 0.882812C83.4115 0.882812 83.7005 0.989583 83.9141 1.20312C84.1276 1.41667 84.2344 1.67969 84.2344 1.99219C84.2344 2.29948 84.1276 2.5599 83.9141 2.77344C83.7005 2.98177 83.4115 3.08594 83.0469 3.08594C82.6823 3.08594 82.3932 2.98177 82.1797 2.77344C81.9661 2.5599 81.8594 2.29948 81.8594 1.99219ZM86.4062 1.99219C86.4062 1.67969 86.513 1.41667 86.7266 1.20312C86.9401 0.989583 87.2292 0.882812 87.5938 0.882812C87.9583 0.882812 88.2474 0.989583 88.4609 1.20312C88.6745 1.41667 88.7812 1.67969 88.7812 1.99219C88.7812 2.29948 88.6745 2.5599 88.4609 2.77344C88.2474 2.98177 87.9583 3.08594 87.5938 3.08594C87.2292 3.08594 86.9401 2.98177 86.7266 2.77344C86.513 2.5599 86.4062 2.29948 86.4062 1.99219ZM90.9531 1.99219C90.9531 1.67969 91.0599 1.41667 91.2734 1.20312C91.487 0.989583 91.776 0.882812 92.1406 0.882812C92.5052 0.882812 92.7943 0.989583 93.0078 1.20312C93.2214 1.41667 93.3281 1.67969 93.3281 1.99219C93.3281 2.29948 93.2214 2.5599 93.0078 2.77344C92.7943 2.98177 92.5052 3.08594 92.1406 3.08594C91.776 3.08594 91.487 2.98177 91.2734 2.77344C91.0599 2.5599 90.9531 2.29948 90.9531 1.99219ZM95.5 1.99219C95.5 1.67969 95.6068 1.41667 95.8203 1.20312C96.0339 0.989583 96.3229 0.882812 96.6875 0.882812C97.0521 0.882812 97.3411 0.989583 97.5547 1.20312C97.7682 1.41667 97.875 1.67969 97.875 1.99219C97.875 2.29948 97.7682 2.5599 97.5547 2.77344C97.3411 2.98177 97.0521 3.08594 96.6875 3.08594C96.3229 3.08594 96.0339 2.98177 95.8203 2.77344C95.6068 2.5599 95.5 2.29948 95.5 1.99219ZM100.047 1.99219C100.047 1.67969 100.154 1.41667 100.367 1.20312C100.581 0.989583 100.87 0.882812 101.234 0.882812C101.599 0.882812 101.888 0.989583 102.102 1.20312C102.315 1.41667 102.422 1.67969 102.422 1.99219C102.422 2.29948 102.315 2.5599 102.102 2.77344C101.888 2.98177 101.599 3.08594 101.234 3.08594C100.87 3.08594 100.581 2.98177 100.367 2.77344C100.154 2.5599 100.047 2.29948 100.047 1.99219ZM104.594 1.99219C104.594 1.67969 104.701 1.41667 104.914 1.20312C105.128 0.989583 105.417 0.882812 105.781 0.882812C106.146 0.882812 106.435 0.989583 106.648 1.20312C106.862 1.41667 106.969 1.67969 106.969 1.99219C106.969 2.29948 106.862 2.5599 106.648 2.77344C106.435 2.98177 106.146 3.08594 105.781 3.08594C105.417 3.08594 105.128 2.98177 104.914 2.77344C104.701 2.5599 104.594 2.29948 104.594 1.99219ZM109.141 1.99219C109.141 1.67969 109.247 1.41667 109.461 1.20312C109.674 0.989583 109.964 0.882812 110.328 0.882812C110.693 0.882812 110.982 0.989583 111.195 1.20312C111.409 1.41667 111.516 1.67969 111.516 1.99219C111.516 2.29948 111.409 2.5599 111.195 2.77344C110.982 2.98177 110.693 3.08594 110.328 3.08594C109.964 3.08594 109.674 2.98177 109.461 2.77344C109.247 2.5599 109.141 2.29948 109.141 1.99219ZM113.688 1.99219C113.688 1.67969 113.794 1.41667 114.008 1.20312C114.221 0.989583 114.51 0.882812 114.875 0.882812C115.24 0.882812 115.529 0.989583 115.742 1.20312C115.956 1.41667 116.062 1.67969 116.062 1.99219C116.062 2.29948 115.956 2.5599 115.742 2.77344C115.529 2.98177 115.24 3.08594 114.875 3.08594C114.51 3.08594 114.221 2.98177 114.008 2.77344C113.794 2.5599 113.688 2.29948 113.688 1.99219ZM118.234 1.99219C118.234 1.67969 118.341 1.41667 118.555 1.20312C118.768 0.989583 119.057 0.882812 119.422 0.882812C119.786 0.882812 120.076 0.989583 120.289 1.20312C120.503 1.41667 120.609 1.67969 120.609 1.99219C120.609 2.29948 120.503 2.5599 120.289 2.77344C120.076 2.98177 119.786 3.08594 119.422 3.08594C119.057 3.08594 118.768 2.98177 118.555 2.77344C118.341 2.5599 118.234 2.29948 118.234 1.99219ZM122.781 1.99219C122.781 1.67969 122.888 1.41667 123.102 1.20312C123.315 0.989583 123.604 0.882812 123.969 0.882812C124.333 0.882812 124.622 0.989583 124.836 1.20312C125.049 1.41667 125.156 1.67969 125.156 1.99219C125.156 2.29948 125.049 2.5599 124.836 2.77344C124.622 2.98177 124.333 3.08594 123.969 3.08594C123.604 3.08594 123.315 2.98177 123.102 2.77344C122.888 2.5599 122.781 2.29948 122.781 1.99219ZM127.328 1.99219C127.328 1.67969 127.435 1.41667 127.648 1.20312C127.862 0.989583 128.151 0.882812 128.516 0.882812C128.88 0.882812 129.169 0.989583 129.383 1.20312C129.596 1.41667 129.703 1.67969 129.703 1.99219C129.703 2.29948 129.596 2.5599 129.383 2.77344C129.169 2.98177 128.88 3.08594 128.516 3.08594C128.151 3.08594 127.862 2.98177 127.648 2.77344C127.435 2.5599 127.328 2.29948 127.328 1.99219ZM131.875 1.99219C131.875 1.67969 131.982 1.41667 132.195 1.20312C132.409 0.989583 132.698 0.882812 133.062 0.882812C133.427 0.882812 133.716 0.989583 133.93 1.20312C134.143 1.41667 134.25 1.67969 134.25 1.99219C134.25 2.29948 134.143 2.5599 133.93 2.77344C133.716 2.98177 133.427 3.08594 133.062 3.08594C132.698 3.08594 132.409 2.98177 132.195 2.77344C131.982 2.5599 131.875 2.29948 131.875 1.99219ZM136.422 1.99219C136.422 1.67969 136.529 1.41667 136.742 1.20312C136.956 0.989583 137.245 0.882812 137.609 0.882812C137.974 0.882812 138.263 0.989583 138.477 1.20312C138.69 1.41667 138.797 1.67969 138.797 1.99219C138.797 2.29948 138.69 2.5599 138.477 2.77344C138.263 2.98177 137.974 3.08594 137.609 3.08594C137.245 3.08594 136.956 2.98177 136.742 2.77344C136.529 2.5599 136.422 2.29948 136.422 1.99219ZM140.969 1.99219C140.969 1.67969 141.076 1.41667 141.289 1.20312C141.503 0.989583 141.792 0.882812 142.156 0.882812C142.521 0.882812 142.81 0.989583 143.023 1.20312C143.237 1.41667 143.344 1.67969 143.344 1.99219C143.344 2.29948 143.237 2.5599 143.023 2.77344C142.81 2.98177 142.521 3.08594 142.156 3.08594C141.792 3.08594 141.503 2.98177 141.289 2.77344C141.076 2.5599 140.969 2.29948 140.969 1.99219ZM145.516 1.99219C145.516 1.67969 145.622 1.41667 145.836 1.20312C146.049 0.989583 146.339 0.882812 146.703 0.882812C147.068 0.882812 147.357 0.989583 147.57 1.20312C147.784 1.41667 147.891 1.67969 147.891 1.99219C147.891 2.29948 147.784 2.5599 147.57 2.77344C147.357 2.98177 147.068 3.08594 146.703 3.08594C146.339 3.08594 146.049 2.98177 145.836 2.77344C145.622 2.5599 145.516 2.29948 145.516 1.99219ZM150.062 1.99219C150.062 1.67969 150.169 1.41667 150.383 1.20312C150.596 0.989583 150.885 0.882812 151.25 0.882812C151.615 0.882812 151.904 0.989583 152.117 1.20312C152.331 1.41667 152.438 1.67969 152.438 1.99219C152.438 2.29948 152.331 2.5599 152.117 2.77344C151.904 2.98177 151.615 3.08594 151.25 3.08594C150.885 3.08594 150.596 2.98177 150.383 2.77344C150.169 2.5599 150.062 2.29948 150.062 1.99219ZM154.609 1.99219C154.609 1.67969 154.716 1.41667 154.93 1.20312C155.143 0.989583 155.432 0.882812 155.797 0.882812C156.161 0.882812 156.451 0.989583 156.664 1.20312C156.878 1.41667 156.984 1.67969 156.984 1.99219C156.984 2.29948 156.878 2.5599 156.664 2.77344C156.451 2.98177 156.161 3.08594 155.797 3.08594C155.432 3.08594 155.143 2.98177 154.93 2.77344C154.716 2.5599 154.609 2.29948 154.609 1.99219ZM159.156 1.99219C159.156 1.67969 159.263 1.41667 159.477 1.20312C159.69 0.989583 159.979 0.882812 160.344 0.882812C160.708 0.882812 160.997 0.989583 161.211 1.20312C161.424 1.41667 161.531 1.67969 161.531 1.99219C161.531 2.29948 161.424 2.5599 161.211 2.77344C160.997 2.98177 160.708 3.08594 160.344 3.08594C159.979 3.08594 159.69 2.98177 159.477 2.77344C159.263 2.5599 159.156 2.29948 159.156 1.99219ZM163.703 1.99219C163.703 1.67969 163.81 1.41667 164.023 1.20312C164.237 0.989583 164.526 0.882812 164.891 0.882812C165.255 0.882812 165.544 0.989583 165.758 1.20312C165.971 1.41667 166.078 1.67969 166.078 1.99219C166.078 2.29948 165.971 2.5599 165.758 2.77344C165.544 2.98177 165.255 3.08594 164.891 3.08594C164.526 3.08594 164.237 2.98177 164.023 2.77344C163.81 2.5599 163.703 2.29948 163.703 1.99219ZM168.25 1.99219C168.25 1.67969 168.357 1.41667 168.57 1.20312C168.784 0.989583 169.073 0.882812 169.438 0.882812C169.802 0.882812 170.091 0.989583 170.305 1.20312C170.518 1.41667 170.625 1.67969 170.625 1.99219C170.625 2.29948 170.518 2.5599 170.305 2.77344C170.091 2.98177 169.802 3.08594 169.438 3.08594C169.073 3.08594 168.784 2.98177 168.57 2.77344C168.357 2.5599 168.25 2.29948 168.25 1.99219ZM172.797 1.99219C172.797 1.67969 172.904 1.41667 173.117 1.20312C173.331 0.989583 173.62 0.882812 173.984 0.882812C174.349 0.882812 174.638 0.989583 174.852 1.20312C175.065 1.41667 175.172 1.67969 175.172 1.99219C175.172 2.29948 175.065 2.5599 174.852 2.77344C174.638 2.98177 174.349 3.08594 173.984 3.08594C173.62 3.08594 173.331 2.98177 173.117 2.77344C172.904 2.5599 172.797 2.29948 172.797 1.99219ZM177.344 1.99219C177.344 1.67969 177.451 1.41667 177.664 1.20312C177.878 0.989583 178.167 0.882812 178.531 0.882812C178.896 0.882812 179.185 0.989583 179.398 1.20312C179.612 1.41667 179.719 1.67969 179.719 1.99219C179.719 2.29948 179.612 2.5599 179.398 2.77344C179.185 2.98177 178.896 3.08594 178.531 3.08594C178.167 3.08594 177.878 2.98177 177.664 2.77344C177.451 2.5599 177.344 2.29948 177.344 1.99219ZM181.891 1.99219C181.891 1.67969 181.997 1.41667 182.211 1.20312C182.424 0.989583 182.714 0.882812 183.078 0.882812C183.443 0.882812 183.732 0.989583 183.945 1.20312C184.159 1.41667 184.266 1.67969 184.266 1.99219C184.266 2.29948 184.159 2.5599 183.945 2.77344C183.732 2.98177 183.443 3.08594 183.078 3.08594C182.714 3.08594 182.424 2.98177 182.211 2.77344C181.997 2.5599 181.891 2.29948 181.891 1.99219ZM186.438 1.99219C186.438 1.67969 186.544 1.41667 186.758 1.20312C186.971 0.989583 187.26 0.882812 187.625 0.882812C187.99 0.882812 188.279 0.989583 188.492 1.20312C188.706 1.41667 188.812 1.67969 188.812 1.99219C188.812 2.29948 188.706 2.5599 188.492 2.77344C188.279 2.98177 187.99 3.08594 187.625 3.08594C187.26 3.08594 186.971 2.98177 186.758 2.77344C186.544 2.5599 186.438 2.29948 186.438 1.99219ZM190.984 1.99219C190.984 1.67969 191.091 1.41667 191.305 1.20312C191.518 0.989583 191.807 0.882812 192.172 0.882812C192.536 0.882812 192.826 0.989583 193.039 1.20312C193.253 1.41667 193.359 1.67969 193.359 1.99219C193.359 2.29948 193.253 2.5599 193.039 2.77344C192.826 2.98177 192.536 3.08594 192.172 3.08594C191.807 3.08594 191.518 2.98177 191.305 2.77344C191.091 2.5599 190.984 2.29948 190.984 1.99219ZM195.531 1.99219C195.531 1.67969 195.638 1.41667 195.852 1.20312C196.065 0.989583 196.354 0.882812 196.719 0.882812C197.083 0.882812 197.372 0.989583 197.586 1.20312C197.799 1.41667 197.906 1.67969 197.906 1.99219C197.906 2.29948 197.799 2.5599 197.586 2.77344C197.372 2.98177 197.083 3.08594 196.719 3.08594C196.354 3.08594 196.065 2.98177 195.852 2.77344C195.638 2.5599 195.531 2.29948 195.531 1.99219ZM200.078 1.99219C200.078 1.67969 200.185 1.41667 200.398 1.20312C200.612 0.989583 200.901 0.882812 201.266 0.882812C201.63 0.882812 201.919 0.989583 202.133 1.20312C202.346 1.41667 202.453 1.67969 202.453 1.99219C202.453 2.29948 202.346 2.5599 202.133 2.77344C201.919 2.98177 201.63 3.08594 201.266 3.08594C200.901 3.08594 200.612 2.98177 200.398 2.77344C200.185 2.5599 200.078 2.29948 200.078 1.99219ZM204.625 1.99219C204.625 1.67969 204.732 1.41667 204.945 1.20312C205.159 0.989583 205.448 0.882812 205.812 0.882812C206.177 0.882812 206.466 0.989583 206.68 1.20312C206.893 1.41667 207 1.67969 207 1.99219C207 2.29948 206.893 2.5599 206.68 2.77344C206.466 2.98177 206.177 3.08594 205.812 3.08594C205.448 3.08594 205.159 2.98177 204.945 2.77344C204.732 2.5599 204.625 2.29948 204.625 1.99219ZM209.172 1.99219C209.172 1.67969 209.279 1.41667 209.492 1.20312C209.706 0.989583 209.995 0.882812 210.359 0.882812C210.724 0.882812 211.013 0.989583 211.227 1.20312C211.44 1.41667 211.547 1.67969 211.547 1.99219C211.547 2.29948 211.44 2.5599 211.227 2.77344C211.013 2.98177 210.724 3.08594 210.359 3.08594C209.995 3.08594 209.706 2.98177 209.492 2.77344C209.279 2.5599 209.172 2.29948 209.172 1.99219ZM213.719 1.99219C213.719 1.67969 213.826 1.41667 214.039 1.20312C214.253 0.989583 214.542 0.882812 214.906 0.882812C215.271 0.882812 215.56 0.989583 215.773 1.20312C215.987 1.41667 216.094 1.67969 216.094 1.99219C216.094 2.29948 215.987 2.5599 215.773 2.77344C215.56 2.98177 215.271 3.08594 214.906 3.08594C214.542 3.08594 214.253 2.98177 214.039 2.77344C213.826 2.5599 213.719 2.29948 213.719 1.99219ZM218.266 1.99219C218.266 1.67969 218.372 1.41667 218.586 1.20312C218.799 0.989583 219.089 0.882812 219.453 0.882812C219.818 0.882812 220.107 0.989583 220.32 1.20312C220.534 1.41667 220.641 1.67969 220.641 1.99219C220.641 2.29948 220.534 2.5599 220.32 2.77344C220.107 2.98177 219.818 3.08594 219.453 3.08594C219.089 3.08594 218.799 2.98177 218.586 2.77344C218.372 2.5599 218.266 2.29948 218.266 1.99219ZM222.812 1.99219C222.812 1.67969 222.919 1.41667 223.133 1.20312C223.346 0.989583 223.635 0.882812 224 0.882812C224.365 0.882812 224.654 0.989583 224.867 1.20312C225.081 1.41667 225.188 1.67969 225.188 1.99219C225.188 2.29948 225.081 2.5599 224.867 2.77344C224.654 2.98177 224.365 3.08594 224 3.08594C223.635 3.08594 223.346 2.98177 223.133 2.77344C222.919 2.5599 222.812 2.29948 222.812 1.99219ZM227.359 1.99219C227.359 1.67969 227.466 1.41667 227.68 1.20312C227.893 0.989583 228.182 0.882812 228.547 0.882812C228.911 0.882812 229.201 0.989583 229.414 1.20312C229.628 1.41667 229.734 1.67969 229.734 1.99219C229.734 2.29948 229.628 2.5599 229.414 2.77344C229.201 2.98177 228.911 3.08594 228.547 3.08594C228.182 3.08594 227.893 2.98177 227.68 2.77344C227.466 2.5599 227.359 2.29948 227.359 1.99219ZM231.906 1.99219C231.906 1.67969 232.013 1.41667 232.227 1.20312C232.44 0.989583 232.729 0.882812 233.094 0.882812C233.458 0.882812 233.747 0.989583 233.961 1.20312C234.174 1.41667 234.281 1.67969 234.281 1.99219C234.281 2.29948 234.174 2.5599 233.961 2.77344C233.747 2.98177 233.458 3.08594 233.094 3.08594C232.729 3.08594 232.44 2.98177 232.227 2.77344C232.013 2.5599 231.906 2.29948 231.906 1.99219ZM236.453 1.99219C236.453 1.67969 236.56 1.41667 236.773 1.20312C236.987 0.989583 237.276 0.882812 237.641 0.882812C238.005 0.882812 238.294 0.989583 238.508 1.20312C238.721 1.41667 238.828 1.67969 238.828 1.99219C238.828 2.29948 238.721 2.5599 238.508 2.77344C238.294 2.98177 238.005 3.08594 237.641 3.08594C237.276 3.08594 236.987 2.98177 236.773 2.77344C236.56 2.5599 236.453 2.29948 236.453 1.99219ZM241 1.99219C241 1.67969 241.107 1.41667 241.32 1.20312C241.534 0.989583 241.823 0.882812 242.188 0.882812C242.552 0.882812 242.841 0.989583 243.055 1.20312C243.268 1.41667 243.375 1.67969 243.375 1.99219C243.375 2.29948 243.268 2.5599 243.055 2.77344C242.841 2.98177 242.552 3.08594 242.188 3.08594C241.823 3.08594 241.534 2.98177 241.32 2.77344C241.107 2.5599 241 2.29948 241 1.99219ZM245.547 1.99219C245.547 1.67969 245.654 1.41667 245.867 1.20312C246.081 0.989583 246.37 0.882812 246.734 0.882812C247.099 0.882812 247.388 0.989583 247.602 1.20312C247.815 1.41667 247.922 1.67969 247.922 1.99219C247.922 2.29948 247.815 2.5599 247.602 2.77344C247.388 2.98177 247.099 3.08594 246.734 3.08594C246.37 3.08594 246.081 2.98177 245.867 2.77344C245.654 2.5599 245.547 2.29948 245.547 1.99219ZM250.094 1.99219C250.094 1.67969 250.201 1.41667 250.414 1.20312C250.628 0.989583 250.917 0.882812 251.281 0.882812C251.646 0.882812 251.935 0.989583 252.148 1.20312C252.362 1.41667 252.469 1.67969 252.469 1.99219C252.469 2.29948 252.362 2.5599 252.148 2.77344C251.935 2.98177 251.646 3.08594 251.281 3.08594C250.917 3.08594 250.628 2.98177 250.414 2.77344C250.201 2.5599 250.094 2.29948 250.094 1.99219ZM254.641 1.99219C254.641 1.67969 254.747 1.41667 254.961 1.20312C255.174 0.989583 255.464 0.882812 255.828 0.882812C256.193 0.882812 256.482 0.989583 256.695 1.20312C256.909 1.41667 257.016 1.67969 257.016 1.99219C257.016 2.29948 256.909 2.5599 256.695 2.77344C256.482 2.98177 256.193 3.08594 255.828 3.08594C255.464 3.08594 255.174 2.98177 254.961 2.77344C254.747 2.5599 254.641 2.29948 254.641 1.99219ZM259.188 1.99219C259.188 1.67969 259.294 1.41667 259.508 1.20312C259.721 0.989583 260.01 0.882812 260.375 0.882812C260.74 0.882812 261.029 0.989583 261.242 1.20312C261.456 1.41667 261.562 1.67969 261.562 1.99219C261.562 2.29948 261.456 2.5599 261.242 2.77344C261.029 2.98177 260.74 3.08594 260.375 3.08594C260.01 3.08594 259.721 2.98177 259.508 2.77344C259.294 2.5599 259.188 2.29948 259.188 1.99219ZM263.734 1.99219C263.734 1.67969 263.841 1.41667 264.055 1.20312C264.268 0.989583 264.557 0.882812 264.922 0.882812C265.286 0.882812 265.576 0.989583 265.789 1.20312C266.003 1.41667 266.109 1.67969 266.109 1.99219C266.109 2.29948 266.003 2.5599 265.789 2.77344C265.576 2.98177 265.286 3.08594 264.922 3.08594C264.557 3.08594 264.268 2.98177 264.055 2.77344C263.841 2.5599 263.734 2.29948 263.734 1.99219ZM268.281 1.99219C268.281 1.67969 268.388 1.41667 268.602 1.20312C268.815 0.989583 269.104 0.882812 269.469 0.882812C269.833 0.882812 270.122 0.989583 270.336 1.20312C270.549 1.41667 270.656 1.67969 270.656 1.99219C270.656 2.29948 270.549 2.5599 270.336 2.77344C270.122 2.98177 269.833 3.08594 269.469 3.08594C269.104 3.08594 268.815 2.98177 268.602 2.77344C268.388 2.5599 268.281 2.29948 268.281 1.99219ZM272.828 1.99219C272.828 1.67969 272.935 1.41667 273.148 1.20312C273.362 0.989583 273.651 0.882812 274.016 0.882812C274.38 0.882812 274.669 0.989583 274.883 1.20312C275.096 1.41667 275.203 1.67969 275.203 1.99219C275.203 2.29948 275.096 2.5599 274.883 2.77344C274.669 2.98177 274.38 3.08594 274.016 3.08594C273.651 3.08594 273.362 2.98177 273.148 2.77344C272.935 2.5599 272.828 2.29948 272.828 1.99219ZM277.375 1.99219C277.375 1.67969 277.482 1.41667 277.695 1.20312C277.909 0.989583 278.198 0.882812 278.562 0.882812C278.927 0.882812 279.216 0.989583 279.43 1.20312C279.643 1.41667 279.75 1.67969 279.75 1.99219C279.75 2.29948 279.643 2.5599 279.43 2.77344C279.216 2.98177 278.927 3.08594 278.562 3.08594C278.198 3.08594 277.909 2.98177 277.695 2.77344C277.482 2.5599 277.375 2.29948 277.375 1.99219ZM281.922 1.99219C281.922 1.67969 282.029 1.41667 282.242 1.20312C282.456 0.989583 282.745 0.882812 283.109 0.882812C283.474 0.882812 283.763 0.989583 283.977 1.20312C284.19 1.41667 284.297 1.67969 284.297 1.99219C284.297 2.29948 284.19 2.5599 283.977 2.77344C283.763 2.98177 283.474 3.08594 283.109 3.08594C282.745 3.08594 282.456 2.98177 282.242 2.77344C282.029 2.5599 281.922 2.29948 281.922 1.99219Z" fill="black"/>
</svg>
