<svg width="16" height="19" viewBox="0 0 16 19" fill="none" xmlns="http://www.w3.org/2000/svg">
<path d="M8 1.5C10.2143 1.5 12.1012 2.27976 13.6607 3.83928C15.2202 5.39881 16 7.28571 16 9.5C16 11.7143 15.2202 13.6012 13.6607 15.1607C12.1012 16.7202 10.2143 17.5 8 17.5C6.30952 17.5 4.78571 17.0238 3.42857 16.0714C2.07143 15.119 1.10714 13.881 0.535714 12.3571H1.75C2.08333 13.0952 2.54762 13.7619 3.14286 14.3571C4.47619 15.6905 6.09524 16.3571 8 16.3571C9.90476 16.3571 11.5238 15.6905 12.8571 14.3571C14.1905 13.0238 14.8571 11.4048 14.8571 9.5C14.8571 7.59524 14.1905 5.97619 12.8571 4.64286C11.5238 3.30952 9.90476 2.64286 8 2.64286C6.09524 2.64286 4.47619 3.30952 3.14286 4.64286C2.54762 5.23809 2.08333 5.90476 1.75 6.64286H0.535714C1.10714 5.11905 2.07143 3.88095 3.42857 2.92857C4.78571 1.97619 6.30952 1.5 8 1.5ZM6.25 11.9286L8.10714 10.0714H0V8.92857H8.10714L6.25 7.07143L7.03571 6.25L10.2857 9.5L7.03571 12.75L6.25 11.9286Z" fill="black"/>
</svg>
