<svg width="16" height="16" viewBox="0 0 16 16" fill="none" xmlns="http://www.w3.org/2000/svg">
<path d="M7.99992 4.33301C8.44195 4.33301 8.86587 4.5086 9.17843 4.82116C9.49099 5.13372 9.66659 5.55765 9.66659 5.99967C9.66659 6.21854 9.62348 6.43527 9.53972 6.63748C9.45596 6.83969 9.33319 7.02342 9.17843 7.17819C9.02367 7.33295 8.83993 7.45572 8.63772 7.53947C8.43552 7.62323 8.21879 7.66634 7.99992 7.66634C7.55789 7.66634 7.13397 7.49075 6.82141 7.17819C6.50885 6.86563 6.33325 6.4417 6.33325 5.99967C6.33325 5.55765 6.50885 5.13372 6.82141 4.82116C7.13397 4.5086 7.55789 4.33301 7.99992 4.33301ZM7.99992 1.33301C9.2376 1.33301 10.4246 1.82467 11.2998 2.69984C12.1749 3.57501 12.6666 4.762 12.6666 5.99967C12.6666 9.49967 7.99992 14.6663 7.99992 14.6663C7.99992 14.6663 3.33325 9.49967 3.33325 5.99967C3.33325 4.762 3.82492 3.57501 4.70009 2.69984C5.57526 1.82467 6.76224 1.33301 7.99992 1.33301ZM7.99992 2.66634C7.11586 2.66634 6.26802 3.01753 5.6429 3.64265C5.01777 4.26777 4.66659 5.11562 4.66659 5.99967C4.66659 6.66634 4.66659 7.99967 7.99992 12.473C11.3333 7.99967 11.3333 6.66634 11.3333 5.99967C11.3333 5.11562 10.9821 4.26777 10.3569 3.64265C9.73182 3.01753 8.88397 2.66634 7.99992 2.66634Z" fill="#595959"/>
</svg>
