<svg width="39" height="36" viewBox="0 0 39 36" fill="none" xmlns="http://www.w3.org/2000/svg">
<path d="M12.8608 22V13.2727H14.2031L17.8423 19.5071H17.9233V13.2727H19.2827V22H17.9531L14.3097 15.7955H14.2287V22H12.8608ZM20.4162 19.4176V18.4759H24.1662V19.4176H20.4162ZM22.2869 17.7514C21.8636 17.7514 21.4957 17.6619 21.1832 17.483C20.8736 17.304 20.6335 17.0582 20.4631 16.7457C20.2926 16.4332 20.2074 16.0753 20.2074 15.6719V15.2287C20.2074 14.8281 20.2912 14.4716 20.4588 14.1591C20.6293 13.8466 20.8693 13.6009 21.179 13.4219C21.4915 13.2401 21.858 13.1491 22.2784 13.1491C22.7045 13.1491 23.0724 13.2401 23.3821 13.4219C23.6918 13.6009 23.9304 13.8466 24.098 14.1591C24.2656 14.4716 24.3494 14.8281 24.3494 15.2287V15.6719C24.3494 16.0724 24.2656 16.4304 24.098 16.7457C23.9332 17.0582 23.696 17.304 23.3864 17.483C23.0795 17.6619 22.7131 17.7514 22.2869 17.7514ZM22.2869 16.7628C22.5795 16.7628 22.8026 16.6634 22.956 16.4645C23.1122 16.2656 23.1903 16.0014 23.1903 15.6719V15.2287C23.1903 14.902 23.1122 14.642 22.956 14.4489C22.8026 14.2528 22.5767 14.1548 22.2784 14.1548C21.9801 14.1548 21.7543 14.2528 21.6009 14.4489C21.4503 14.642 21.375 14.902 21.375 15.2287V15.6719C21.375 16.0014 21.4517 16.2656 21.6051 16.4645C21.7585 16.6634 21.9858 16.7628 22.2869 16.7628Z" fill="black"/>
</svg>
